<?xml version="1.0" encoding="UTF-8"?>
<svg version="1.1" xmlns="http://www.w3.org/2000/svg" width="308" height="304">
<path d="M0 0 C101.64 0 203.28 0 308 0 C308 100.32 308 200.64 308 304 C206.36 304 104.72 304 0 304 C0 203.68 0 103.36 0 0 Z " fill="#C5F3EB" transform="translate(0,0)"/>
<path d="M0 0 C101.64 0 203.28 0 308 0 C308 100.32 308 200.64 308 304 C206.36 304 104.72 304 0 304 C0 203.68 0 103.36 0 0 Z M114 15 C113.00484375 15.26167969 112.0096875 15.52335938 110.984375 15.79296875 C106.30778377 17.06012895 102.12382054 18.77311613 97.84765625 21.04296875 C96 22 96 22 92.75 23.3125 C79.36827782 28.96459727 68.51692309 38.21840649 58 48 C57.32066406 48.61359375 56.64132813 49.2271875 55.94140625 49.859375 C50.11092769 55.34964455 45.622397 61.73986487 41.13867188 68.33691406 C40.02052842 69.97001724 38.86207747 71.57528732 37.703125 73.1796875 C35.65537688 76.02157291 35.65537688 76.02157291 36 80 C35.34 80 34.68 80 34 80 C26.1457365 98.42221916 20.62412245 115.33053168 20.68432617 135.53222656 C20.68747557 137.73293172 20.66397955 139.93227334 20.63867188 142.1328125 C20.59558587 151.8009192 21.73734658 160.59276086 24 170 C24.18377197 170.80775879 24.36754395 171.61551758 24.55688477 172.44775391 C26.27188241 179.80079517 28.38925309 186.38029734 32 193 C32.70905938 194.98536627 33.39421747 196.98072489 34 199 C34.66 199 35.32 199 36 199 C36.35964844 200.26650391 36.35964844 200.26650391 36.7265625 201.55859375 C38.15469733 205.41806241 40.09054374 208.67072506 42.375 212.0625 C43.03157593 213.03932739 43.03157593 213.03932739 43.70141602 214.03588867 C48.49350759 220.9767113 54.03043024 227.06202572 60 233 C60.89589844 233.89589844 61.79179688 234.79179687 62.71484375 235.71484375 C69.54367794 242.22279293 76.93702103 247.19180153 85 252 C85.9384375 252.5671875 86.876875 253.134375 87.84375 253.71875 C93.93347921 257.22929978 100.18369747 259.66942352 106.8359375 261.921875 C108.79433224 262.58917987 110.73917974 263.30002001 112.65625 264.078125 C115.53160501 265.20909797 118.36317272 265.8442578 121.38330078 266.46166992 C123.05330844 266.80523839 124.72112432 267.15976608 126.38574219 267.52856445 C134.00239986 269.09691551 141.36747213 269.26725813 149.125 269.1875 C150.96964844 269.1865332 150.96964844 269.1865332 152.8515625 269.18554688 C158.29103747 269.6867272 158.29103747 269.6867272 163 268 C165.0601098 267.72247226 167.1209971 267.44987518 169.18481445 267.20141602 C177.72461242 266.14058633 185.69367966 264.43999861 193.8125 261.5625 C195.03706909 261.1301001 195.03706909 261.1301001 196.28637695 260.68896484 C201.18806664 258.87525339 205.52673139 256.69947539 210 254 C211.19158745 253.31705101 212.38431959 252.63609576 213.578125 251.95703125 C243.07726853 234.85555985 265.61368206 207.29007407 274.6574707 174.16845703 C283.98749715 138.1977885 278.54197163 103.9576608 260.24609375 71.9296875 C244.58379084 46.41939367 219.58908751 26.0281329 191 17 C189.89011719 16.57460938 189.89011719 16.57460938 188.7578125 16.140625 C166.44582672 7.6325526 136.59655278 8.09549776 114 15 Z " fill="#FDFDFD" transform="translate(0,0)"/>
<path d="M0 0 C3.75940733 1.82026639 7.90137399 1.40192082 11.9765625 0.95703125 C13.50876472 0.3604448 15.0299012 -0.26528874 16.5390625 -0.91796875 C23.68675451 -3.34569984 30.42440577 0.40449742 37.02197266 3.15234375 C38.69122093 3.83955863 40.38479361 4.4671829 42.08203125 5.08203125 C47.27153187 6.96626748 51.14360614 8.93242707 54.9765625 12.95703125 C56.83812873 17.39979419 57.22333982 21.18830853 57.20703125 25.98046875 C57.20693558 26.63995514 57.2068399 27.29944153 57.20674133 27.97891235 C57.20305161 30.09681127 57.18420919 32.21423034 57.1640625 34.33203125 C57.15722196 35.78124848 57.15071199 37.23046731 57.14453125 38.6796875 C57.08648724 48.12925266 56.84365533 57.54288053 55.9765625 66.95703125 C45.37981255 71.39573611 35.07754819 73.29183629 23.70385742 74.64746094 C21.95136401 74.79180478 21.95136401 74.79180478 20.9765625 75.95703125 C16.69142692 76.21452021 12.39349133 76.14228181 8.1015625 76.14453125 C6.91046875 76.15677734 5.719375 76.16902344 4.4921875 76.18164062 C-4.87636729 76.19701571 -13.57161885 75.08058165 -22.5859375 72.51953125 C-23.48183594 72.26558594 -24.37773438 72.01164062 -25.30078125 71.75 C-26.19925781 71.48832031 -27.09773438 71.22664063 -28.0234375 70.95703125 C-28.97347656 70.68503906 -29.92351562 70.41304688 -30.90234375 70.1328125 C-37.88337726 68.09709149 -37.88337726 68.09709149 -39.0234375 66.95703125 C-39.18307498 64.98671375 -39.2750593 63.01086831 -39.33984375 61.03515625 C-39.38222168 59.7912915 -39.42459961 58.54742676 -39.46826172 57.26586914 C-39.50835161 55.91294852 -39.54755908 54.5600015 -39.5859375 53.20703125 C-39.60545471 52.53074677 -39.62497192 51.85446228 -39.64508057 51.15768433 C-39.74279193 47.72163714 -39.83379043 44.28548904 -39.91943359 40.84912109 C-40.01130271 37.41114569 -40.13256018 33.97577956 -40.26171875 30.5390625 C-40.30933209 28.69927042 -40.35505645 26.85942799 -40.3984375 25.01953125 C-40.43654541 24.19420898 -40.47465332 23.36888672 -40.51391602 22.51855469 C-40.58366877 17.5686926 -39.78521202 14.3226557 -36.61499023 10.44775391 C-33.7713534 7.78427078 -30.61817896 6.37536994 -27.0234375 4.95703125 C-26.21986816 4.63524902 -25.41629883 4.3134668 -24.58837891 3.98193359 C-22.01856267 2.99058495 -19.43341986 2.06072003 -16.8359375 1.14453125 C-15.96001953 0.82033203 -15.08410156 0.49613281 -14.18164062 0.16210938 C-12.90643555 -0.28938477 -12.90643555 -0.28938477 -11.60546875 -0.75 C-10.46428589 -1.15955933 -10.46428589 -1.15955933 -9.30004883 -1.57739258 C-5.8301905 -2.28699256 -3.11530989 -1.60576784 0 0 Z " fill="#61D8C2" transform="translate(141.0234375,193.04296875)"/>
<path d="M0 0 C0.99 0.99 0.99 0.99 2 2 C1.6328125 3.78125 1.6328125 3.78125 1 6 C0.7950574 10.00240835 0.89609321 13.99486548 1 18 C1.02835937 19.093125 1.05671875 20.18625 1.0859375 21.3125 C1.14007813 22.364375 1.19421875 23.41625 1.25 24.5 C1.29640625 25.4590625 1.3428125 26.418125 1.390625 27.40625 C2.1514166 30.64449119 3.65364905 31.71818522 6 34 C6.79979937 37.08336449 6.64326212 39.88905129 6 43 C3.60355847 46.28654838 2.09463435 47.6837723 -1.8125 48.8125 C-2.534375 48.874375 -3.25625 48.93625 -4 49 C-4.37125 50.794375 -4.37125 50.794375 -4.75 52.625 C-5.77532182 56.71906669 -7.43916601 59.61066089 -10 63 C-10.598125 63.845625 -11.19625 64.69125 -11.8125 65.5625 C-14.51554203 68.57446112 -17.49304827 70.97011414 -21 73 C-21.66 73 -22.32 73 -23 73 C-22.835 73.495 -22.67 73.99 -22.5 74.5 C-21.79311182 78.03444089 -21.93994845 81.39690701 -22 85 C-28.08486319 87.70438364 -33.32633496 88.89287457 -40 88 C-43.125 86.5 -43.125 86.5 -45 85 C-44 76.42857143 -44 76.42857143 -43 73 C-43.680625 72.773125 -44.36125 72.54625 -45.0625 72.3125 C-50.96296928 69.67612011 -55.62069426 65.7250404 -60 61 C-60.46792969 60.53722656 -60.93585938 60.07445312 -61.41796875 59.59765625 C-64.1860079 56.67454488 -64.98463518 55.19052377 -65.3125 51.125 C-65.209375 50.09375 -65.10625 49.0625 -65 48 C-65.639375 47.71125 -66.27875 47.4225 -66.9375 47.125 C-69 46 -69 46 -70 44 C-70.07065617 41.95944995 -70.08421976 39.91665743 -70.0625 37.875 C-70.05347656 36.77929688 -70.04445313 35.68359375 -70.03515625 34.5546875 C-70.02355469 33.71164063 -70.01195313 32.86859375 -70 32 C-68.515 31.505 -68.515 31.505 -67 31 C-67.01047363 30.39526855 -67.02094727 29.79053711 -67.03173828 29.16748047 C-67.07354668 26.4033633 -67.09940451 23.63931292 -67.125 20.875 C-67.14175781 19.92367187 -67.15851563 18.97234375 -67.17578125 17.9921875 C-67.21060363 12.97776448 -67.19636936 8.63080673 -65 4 C-63.67696283 3.6278958 -62.34262065 3.29369827 -61 3 C-60.566875 1.88625 -60.566875 1.88625 -60.125 0.75 C-58.60838487 -2.95728143 -56.36810109 -4.98941242 -53 -7 C-36.45371318 -12.79120039 -14.63476543 -9.23309236 0 0 Z " fill="#FBB59D" transform="translate(183,107)"/>
<path d="M0 0 C4.17185096 3.5534936 8.63783513 8.58181885 9.25 14.1875 C9.54726297 23.13968866 7.56426455 28.48085706 1.7890625 35.24609375 C-0.0234375 36.68359375 -0.0234375 36.68359375 -2.0234375 36.68359375 C-2.00023437 37.76898438 -1.97703125 38.854375 -1.953125 39.97265625 C-1.9343548 41.41796182 -1.91615594 42.8632749 -1.8984375 44.30859375 C-1.88167969 45.02144531 -1.86492187 45.73429687 -1.84765625 46.46875 C-1.79943954 51.72437105 -2.64392376 55.92456628 -5.0234375 60.68359375 C-5.6834375 60.68359375 -6.3434375 60.68359375 -7.0234375 60.68359375 C-7.07951172 59.81347656 -7.07951172 59.81347656 -7.13671875 58.92578125 C-7.56534651 53.83267497 -8.4847603 50.20906181 -11.0234375 45.68359375 C-11.0234375 45.02359375 -11.0234375 44.36359375 -11.0234375 43.68359375 C-12.10882813 43.96074219 -13.19421875 44.23789063 -14.3125 44.5234375 C-15.75778031 44.88945005 -17.20309462 45.25532835 -18.6484375 45.62109375 C-19.36128906 45.80349609 -20.07414062 45.98589844 -20.80859375 46.17382812 C-39.50138754 50.88989995 -58.73063444 50.31217539 -75.65625 40.2421875 C-82.27430005 35.88475851 -87.30795627 31.34942129 -90.0234375 23.68359375 C-90.99973671 17.67164598 -90.64956281 11.98305468 -87.5390625 6.66015625 C-81.76588632 -0.8687797 -75.04180185 -5.61967699 -66.0234375 -8.31640625 C-64.90066406 -8.68636719 -63.77789062 -9.05632813 -62.62109375 -9.4375 C-41.75822517 -15.7642251 -18.02837723 -12.61986406 0 0 Z " fill="#FBFDFD" transform="translate(190.0234375,34.31640625)"/>
<path d="M0 0 C0.99 0.99 0.99 0.99 2 2 C1.6328125 3.78125 1.6328125 3.78125 1 6 C0.7950574 10.00240835 0.89609321 13.99486548 1 18 C1.02835937 19.093125 1.05671875 20.18625 1.0859375 21.3125 C1.14007813 22.364375 1.19421875 23.41625 1.25 24.5 C1.29640625 25.4590625 1.3428125 26.418125 1.390625 27.40625 C2.1514166 30.64449119 3.65364905 31.71818522 6 34 C6.79952432 37.08230409 6.64844598 39.89078465 6 43 C3.29877067 46.6016391 1.33644676 48.11047246 -3 49 C-2.98428955 48.29504395 -2.9685791 47.59008789 -2.95239258 46.86376953 C-2.88938334 43.61759721 -2.85080204 40.3715542 -2.8125 37.125 C-2.78736328 36.01640625 -2.76222656 34.9078125 -2.73632812 33.765625 C-2.67350547 26.64572459 -3.48757489 20.67525198 -6 14 C-9.56983114 13.10164492 -11.97873589 13.00855234 -15.53125 13.92578125 C-21.54721291 15.25040716 -27.36187403 15.25818145 -33.5 15.1875 C-34.56347656 15.18685547 -35.62695312 15.18621094 -36.72265625 15.18554688 C-43.20369409 15.149762 -49.56604152 14.78088127 -56 14 C-56.268125 14.70125 -56.53625 15.4025 -56.8125 16.125 C-58 19 -58 19 -59.53564453 21.7734375 C-62.04004795 27.29164284 -61.70339729 33.01841985 -61.875 39 C-61.93429688 40.258125 -61.99359375 41.51625 -62.0546875 42.8125 C-62.0959375 44.029375 -62.1371875 45.24625 -62.1796875 46.5 C-62.21819824 47.6034375 -62.25670898 48.706875 -62.29638672 49.84375 C-61.90165027 54.04733551 -60.60359212 57.58278179 -57.38671875 60.42578125 C-53.59412977 62.4049024 -50.3285223 63.57770514 -46 64 C-46 63.34 -46 62.68 -46 62 C-44.68 62 -43.36 62 -42 62 C-42 63.65 -42 65.3 -42 67 C-50.27014317 66.617123 -56.65369935 64.78024892 -62.5 58.6875 C-64.79842517 55.81757452 -65.00452816 54.95245436 -65.375 51.0625 C-65.25125 50.051875 -65.1275 49.04125 -65 48 C-65.639375 47.71125 -66.27875 47.4225 -66.9375 47.125 C-69 46 -69 46 -70 44 C-70.07065617 41.95944995 -70.08421976 39.91665743 -70.0625 37.875 C-70.05347656 36.77929688 -70.04445313 35.68359375 -70.03515625 34.5546875 C-70.02355469 33.71164063 -70.01195313 32.86859375 -70 32 C-68.515 31.505 -68.515 31.505 -67 31 C-67.01047363 30.39526855 -67.02094727 29.79053711 -67.03173828 29.16748047 C-67.07354668 26.4033633 -67.09940451 23.63931292 -67.125 20.875 C-67.14175781 19.92367187 -67.15851563 18.97234375 -67.17578125 17.9921875 C-67.21060363 12.97776448 -67.19636936 8.63080673 -65 4 C-63.67696283 3.6278958 -62.34262065 3.29369827 -61 3 C-60.566875 1.88625 -60.566875 1.88625 -60.125 0.75 C-58.60838487 -2.95728143 -56.36810109 -4.98941242 -53 -7 C-36.45371318 -12.79120039 -14.63476543 -9.23309236 0 0 Z " fill="#AA5014" transform="translate(183,107)"/>
<path d="M0 0 C13.86 0 27.72 0 42 0 C44.22735242 27.43160344 44.22735242 27.43160344 40.21582031 33.85839844 C35.56395466 38.67833149 29.49237671 43.09116308 23 45 C19.23388164 44.68012893 16.86252982 43.50521358 13.828125 41.3125 C13.08175781 40.77882812 12.33539063 40.24515625 11.56640625 39.6953125 C10.80199219 39.13585937 10.03757813 38.57640625 9.25 38 C8.47011719 37.44054687 7.69023437 36.88109375 6.88671875 36.3046875 C1.23660714 32.23660714 1.23660714 32.23660714 0 31 C-0.08790975 28.70848583 -0.10694038 26.41427476 -0.09765625 24.12109375 C-0.09515869 22.86482178 -0.09266113 21.6085498 -0.09008789 20.31420898 C-0.08098389 18.70489502 -0.07187988 17.09558105 -0.0625 15.4375 C-0.041875 10.343125 -0.02125 5.24875 0 0 Z " fill="#F4FCFB" transform="translate(215,110)"/>
<path d="M0 0 C1.98 0 3.96 0 6 0 C6.15855469 0.85722656 6.31710938 1.71445313 6.48046875 2.59765625 C8.64530693 7.44489032 12.00886909 9.50010113 16.3125 12.4375 C17.45235352 13.26797852 17.45235352 13.26797852 18.61523438 14.11523438 C19.35708984 14.63279297 20.09894531 15.15035156 20.86328125 15.68359375 C21.53657471 16.15337646 22.20986816 16.62315918 22.90356445 17.10717773 C25.68962263 18.29369395 27.14629881 17.90973601 30 17 C31.82643441 16.04015248 31.82643441 16.04015248 33.4453125 14.78515625 C34.04730469 14.34623047 34.64929688 13.90730469 35.26953125 13.45507812 C35.88183594 12.99552734 36.49414062 12.53597656 37.125 12.0625 C38.35662101 11.15734818 39.58838668 10.25239317 40.8203125 9.34765625 C41.86960938 8.57292969 42.91890625 7.79820312 44 7 C44.99 6.34 45.98 5.68 47 5 C47.72965366 2.43717258 47.72965366 2.43717258 48 0 C49.98 0 51.96 0 54 0 C54 12.87 54 25.74 54 39 C36.18 39 18.36 39 0 39 C0 26.13 0 13.26 0 0 Z " fill="#62D7C2" transform="translate(209,136)"/>
<path d="M0 0 C9.57 0 19.14 0 29 0 C29 14.52 29 29.04 29 44 C19.43 44 9.86 44 0 44 C0 29.48 0 14.96 0 0 Z " fill="#FBFEFD" transform="translate(36,105)"/>
<path d="M0 0 C1.22783203 -0.00515625 2.45566406 -0.0103125 3.72070312 -0.015625 C5.63979492 0.00757812 5.63979492 0.00757812 7.59765625 0.03125 C8.87318359 0.01578125 10.14871094 0.0003125 11.46289062 -0.015625 C13.30657227 -0.00789063 13.30657227 -0.00789063 15.1875 0 C16.30890381 0.00451172 17.43030762 0.00902344 18.58569336 0.01367188 C22.65260905 0.69832694 24.09101166 1.2404884 26.66015625 4.53125 C27.40605105 8.62187464 27.33607057 12.66464913 27.2890625 16.8125 C27.29147446 18.01813599 27.29388641 19.22377197 27.29637146 20.46594238 C27.29539209 23.01460052 27.28197754 25.56327969 27.25708008 28.11181641 C27.22278418 32.01668441 27.23641595 35.91928907 27.25585938 39.82421875 C27.24896093 42.29948882 27.23928857 44.77475303 27.2265625 47.25 C27.23152237 48.4198645 27.23648224 49.589729 27.24159241 50.79504395 C27.21783791 52.42693665 27.21783791 52.42693665 27.19360352 54.09179688 C27.18740494 55.0479187 27.18120636 56.00404053 27.17481995 56.98913574 C26.50822546 60.28169233 25.27322815 61.48026457 22.66015625 63.53125 C18.51612617 64.25539473 14.39028137 64.14804319 10.18798828 64.10766602 C8.16532232 64.09378545 6.14727614 64.12789196 4.125 64.16601562 C2.84753906 64.16408203 1.57007813 64.16214844 0.25390625 64.16015625 C-0.91462891 64.16088135 -2.08316406 64.16160645 -3.28710938 64.16235352 C-6.33984375 63.53125 -6.33984375 63.53125 -8.71875 61.75195312 C-11.24079636 56.74128512 -10.91029955 51.90474384 -10.87109375 46.37109375 C-10.87492065 45.18906876 -10.87874756 44.00704376 -10.88269043 42.78919983 C-10.88540936 40.29362129 -10.87804963 37.79801424 -10.86132812 35.30249023 C-10.83990125 31.47901054 -10.86114238 27.65740601 -10.88671875 23.83398438 C-10.88407585 21.40885001 -10.87895165 18.98371682 -10.87109375 16.55859375 C-10.87919067 15.41374008 -10.8872876 14.26888641 -10.89562988 13.08934021 C-10.88302124 12.02466019 -10.8704126 10.95998016 -10.85742188 9.86303711 C-10.8542395 8.92769638 -10.85105713 7.99235565 -10.84777832 7.02867126 C-9.6220095 1.00179043 -5.53942344 0.02230908 0 0 Z M-6.33984375 8.53125 C-6.33984375 23.05125 -6.33984375 37.57125 -6.33984375 52.53125 C3.23015625 52.53125 12.80015625 52.53125 22.66015625 52.53125 C22.66015625 38.01125 22.66015625 23.49125 22.66015625 8.53125 C13.09015625 8.53125 3.52015625 8.53125 -6.33984375 8.53125 Z " fill="#67D7C4" transform="translate(42.33984375,96.46875)"/>
<path d="M0 0 C4.20305855 3.20233032 8.24079315 7.23158631 10.625 12 C11.35101866 19.17687302 11.0293488 24.20480421 6.625 30 C2.81644614 33.91289781 -1.10660164 36.83989265 -6.6875 37.11328125 C-8.92112632 37.12375137 -11.14326264 37.08751911 -13.375 37 C-10.94085336 35.72220502 -8.86661622 34.86044367 -6.1875 34.125 C-5.259375 33.75375 -4.33125 33.3825 -3.375 33 C-2.40622943 30.96756452 -2.40622943 30.96756452 -2.375 29 C-1.715 29 -1.055 29 -0.375 29 C-0.045 25.7 0.285 22.4 0.625 19 C-2.345 19 -5.315 19 -8.375 19 C-8.375 21.97 -8.375 24.94 -8.375 28 C-7.385 28.33 -6.395 28.66 -5.375 29 C-8.28982778 29.80967438 -9.83613217 30.21845993 -12.6875 29.0625 C-13.5228125 28.5365625 -13.5228125 28.5365625 -14.375 28 C-13.055 28 -11.735 28 -10.375 28 C-10.375 25.03 -10.375 22.06 -10.375 19 C-13.015 19 -15.655 19 -18.375 19 C-18.2614371 20.64666203 -18.13382619 22.29236082 -18 23.9375 C-17.93039063 24.85402344 -17.86078125 25.77054688 -17.7890625 26.71484375 C-17.65242188 27.46894531 -17.51578125 28.22304687 -17.375 29 C-16.715 29.33 -16.055 29.66 -15.375 30 C-16.695 30.33 -18.015 30.66 -19.375 31 C-19.375 31.66 -19.375 32.32 -19.375 33 C-18.715 33 -18.055 33 -17.375 33 C-17.705 33.66 -18.035 34.32 -18.375 35 C-23.510529 32.6523296 -26.35428337 29.18429759 -28.375 24 C-29.30904151 17.92873018 -29.41830856 11.70675288 -25.74609375 6.53515625 C-18.43003396 -1.65632949 -10.64368902 -3.15368564 0 0 Z " fill="#6DDBC6" transform="translate(101.375,156)"/>
<path d="M0 0 C0.86466378 3.01957143 1.15779638 5.78598062 1.24609375 8.921875 C1.27896484 9.86546875 1.31183594 10.8090625 1.34570312 11.78125 C1.40641472 13.7446889 1.46376179 15.70823501 1.51757812 17.671875 C1.69772077 22.67508209 2.14720952 27.18176006 3.50317383 31.99804688 C4.46995747 35.89368611 4.75242337 39.88659769 5.125 43.875 C5.21136719 44.70902344 5.29773438 45.54304688 5.38671875 46.40234375 C5.95932663 52.28293581 6.09919737 58.09381992 6 64 C3.74888027 63.71710528 1.49912314 63.42335307 -0.75 63.125 C-2.62945312 62.88136719 -2.62945312 62.88136719 -4.546875 62.6328125 C-7.54501115 62.08338031 -9.37659843 61.41221426 -12 60 C-12.30381871 51.98839756 -12.58302308 43.97664741 -12.81924438 35.96278381 C-12.91106709 32.85160244 -13.00982818 29.74116636 -13.12792969 26.63085938 C-13.23482729 23.77477461 -13.30993626 20.91979518 -13.375 18.0625 C-13.41302734 17.2372583 -13.45105469 16.4120166 -13.49023438 15.56176758 C-13.56321823 10.42016223 -12.54878258 7.46922418 -9.37353516 3.40795898 C-6.30745703 0.26503816 -4.2231618 -0.22827902 0 0 Z " fill="#22C9A8" transform="translate(114,200)"/>
<path d="M0 0 C6.7109375 0.7890625 6.7109375 0.7890625 9.3125 2.6875 C12.79553809 7.4605522 13.25014932 12.24043775 13.23046875 18.0234375 C13.23032524 19.01266708 13.23032524 19.01266708 13.23017883 20.0218811 C13.22648911 22.13978002 13.20764669 24.25719909 13.1875 26.375 C13.18065946 27.82421723 13.17414949 29.27343606 13.16796875 30.72265625 C13.10992474 40.17222141 12.86709283 49.58584928 12 59 C10.08594633 59.67413211 8.16863974 60.3390332 6.25 61 C5.18265625 61.37125 4.1153125 61.7425 3.015625 62.125 C0 63 0 63 -4 63 C-3.50780459 52.85818406 -2.84286011 42.74398655 -2 32.625 C-1.09700357 21.757388 -0.46256507 10.89462469 0 0 Z " fill="#21C8A7" transform="translate(185,201)"/>
<path d="M0 0 C1.18078125 -0.03738281 2.3615625 -0.07476562 3.578125 -0.11328125 C13.34329207 -0.21225254 13.34329207 -0.21225254 17.015625 2.7734375 C19.39293324 5.54142226 20.13933105 6.56342767 20.625 10.125 C20.1028401 14.6503858 18.40770622 16.1421103 15.25 19.375 C12.84454362 20.57772819 11.30003047 20.47571472 8.625 20.4375 C7.39910156 20.42396484 7.39910156 20.42396484 6.1484375 20.41015625 C5.52195312 20.39855469 4.89546875 20.38695313 4.25 20.375 C4.146875 21.57125 4.04375 22.7675 3.9375 24 C3.44709252 27.94427729 2.33836483 30.95008167 0.25 34.375 C-0.74 34.87 -0.74 34.87 -1.75 35.375 C-1.42 30.425 -1.09 25.475 -0.75 20.375 C-2.60625 20.478125 -4.4625 20.58125 -6.375 20.6875 C-10.49927096 20.70210781 -13.2180442 20.69738189 -16.4375 18 C-18.89017994 15.21587682 -19.6323577 14.23771017 -20.125 10.625 C-19.6028401 6.0996142 -17.90770622 4.6078897 -14.75 1.375 C-10.43268226 -0.78365887 -4.74204364 0.05620957 0 0 Z " fill="#4587B3" transform="translate(77.75,68.625)"/>
<path d="M0 0 C4.30746475 2.23656823 7.52075882 4.80436107 10 9 C11.3831376 19.71931638 4.08225154 26.83620121 -2 35 C-8.42842755 32.70198735 -12.9925204 24.88202328 -16 19 C-17.22008427 14.32204659 -17.28167702 10.37684134 -14.953125 6.05859375 C-10.81944925 0.76391647 -6.56387638 -1.00886905 0 0 Z " fill="#FAFDFD" transform="translate(82,204)"/>
<path d="M0 0 C2.58344296 1.77668358 4.98084265 3.5880373 7 6 C7 6.66 7 7.32 7 8 C-8.15374076 13.06128916 -25.33791949 11.87413236 -41 10 C-41.2475 10.639375 -41.495 11.27875 -41.75 11.9375 C-43.40811572 15.99988351 -45.2035584 19.99724906 -47 24 C-47.66 24 -48.32 24 -49 24 C-49.71614569 17.19661595 -47.32568088 11.12948763 -43.3046875 5.71875 C-32.30129899 -6.22014927 -14.06279747 -7.66212221 0 0 Z " fill="#AC4B0A" transform="translate(168,111)"/>
<path d="M0 0 C5.18832106 4.17414307 8.59901538 10.10954615 10.6875 16.375 C10.75490865 17.93618428 10.77264456 19.5000252 10.75 21.0625 C10.74097656 21.87074219 10.73195313 22.67898437 10.72265625 23.51171875 C10.71105469 24.12660156 10.69945312 24.74148437 10.6875 25.375 C11.491875 25.66375 12.29625 25.9525 13.125 26.25 C15.6875 27.375 15.6875 27.375 16.6875 29.375 C17.35489635 34.22792492 17.43835716 37.37385712 14.4375 41.375 C11.91590249 43.2088891 10.62545991 43.77234156 7.6875 44.375 C7.70321045 43.67004395 7.7189209 42.96508789 7.73510742 42.23876953 C7.79811666 38.99259721 7.83669796 35.7465542 7.875 32.5 C7.90013672 31.39140625 7.92527344 30.2828125 7.95117188 29.140625 C8.04028601 19.0410225 6.86678687 10.574569 -0.27734375 3.06640625 C-9.0267195 -4.20514787 -20.46890913 -4.59768994 -31.3125 -3.625 C-38.45075742 -2.09603131 -44.05781609 1.41165314 -48.3125 7.375 C-50.96149582 12.47108647 -52.70900907 17.64183621 -53.3125 23.375 C-52.6525 23.375 -51.9925 23.375 -51.3125 23.375 C-51.32821045 24.10090332 -51.3439209 24.82680664 -51.36010742 25.57470703 C-51.42270355 28.88305788 -51.46156912 32.19128381 -51.5 35.5 C-51.52513672 36.64210937 -51.55027344 37.78421875 -51.57617188 38.9609375 C-51.73983207 47.12411479 -51.73983207 47.12411479 -48.3125 54.375 C-44.5965036 57.65911304 -40.19469858 58.89868794 -35.3125 59.375 C-35.3125 58.715 -35.3125 58.055 -35.3125 57.375 C-33.9925 57.375 -32.6725 57.375 -31.3125 57.375 C-31.3125 59.025 -31.3125 60.675 -31.3125 62.375 C-39.58264317 61.992123 -45.96619935 60.15524892 -51.8125 54.0625 C-54.11092517 51.19257452 -54.31702816 50.32745436 -54.6875 46.4375 C-54.56375 45.426875 -54.44 44.41625 -54.3125 43.375 C-54.951875 43.08625 -55.59125 42.7975 -56.25 42.5 C-58.3125 41.375 -58.3125 41.375 -59.3125 39.375 C-59.45995376 37.37870297 -59.53363182 35.37652719 -59.5625 33.375 C-59.58828125 32.3025 -59.6140625 31.23 -59.640625 30.125 C-59.53234375 29.2175 -59.4240625 28.31 -59.3125 27.375 C-58.3225 26.715 -57.3325 26.055 -56.3125 25.375 C-55.50423992 22.07561356 -55.50423992 22.07561356 -55 18.25 C-53.85687509 11.61247512 -52.11718009 7.14560434 -47.3125 2.375 C-46.79816406 1.81296875 -46.28382812 1.2509375 -45.75390625 0.671875 C-33.83857426 -11.1005873 -12.92768083 -8.60216192 0 0 Z " fill="#423D3C" transform="translate(172.3125,111.625)"/>
<path d="M0 0 C3.91075925 1.98968453 5.57689098 3.36533646 8 7 C8.265625 9.15625 8.265625 9.15625 8.25 11.5 C8.25515625 12.2734375 8.2603125 13.046875 8.265625 13.84375 C8 16 8 16 6 19 C5.34 19 4.68 19 4 19 C4 19.66 4 20.32 4 21 C3.34 21 2.68 21 2 21 C2 21.99 2 22.98 2 24 C-2.35233442 25.2139164 -6.50742907 25.58563871 -11 25 C-14.61918516 22.84388969 -16.4047467 20.8424797 -18 17 C-18.64095668 12.9113711 -18.95574033 8.77291608 -16.94921875 5.05078125 C-12.11354633 -0.84046568 -7.21706199 -0.75326176 0 0 Z " fill="#CEF5EF" transform="translate(97,113)"/>
<path d="M0 0 C1.65 0 3.3 0 5 0 C5 0.99 5 1.98 5 3 C7.31 3 9.62 3 12 3 C13.85776765 6.13498292 14.20140476 8.37471432 14 12 C14.99 12 15.98 12 17 12 C17 13.65 17 15.3 17 17 C16.01 17 15.02 17 14 17 C13.67 19.31 13.34 21.62 13 24 C10.23735711 24.59732819 7.83967231 25 5 25 C5 25.99 5 26.98 5 28 C3.35 28 1.7 28 0 28 C0 27.01 0 26.02 0 25 C-1.11375 25.061875 -2.2275 25.12375 -3.375 25.1875 C-4.57125 25.125625 -5.7675 25.06375 -7 25 C-9.1519437 21.77208445 -9.20086443 20.71599191 -9 17 C-9.99 17 -10.98 17 -12 17 C-12 15.35 -12 13.7 -12 12 C-11.01 12 -10.02 12 -9 12 C-9 9.69 -9 7.38 -9 5 C-5.86501708 3.14223235 -3.62528568 2.79859524 0 3 C0 2.01 0 1.02 0 0 Z " fill="#66D9C4" transform="translate(236,185)"/>
<path d="M0 0 C2.53618374 1.39081044 4.16671141 2.7670333 5.9375 5.0625 C5.75996387 8.08061422 5.10014785 8.89985215 2.9375 11.0625 C3.0904763 15.34583637 6.11658426 18.11336081 8.9375 21.0625 C11.5889482 22.46069512 11.5889482 22.46069512 13.9375 23.0625 C14.5975 21.7425 15.2575 20.4225 15.9375 19.0625 C19.09223719 19.41302635 20.7608534 19.92769076 23.3125 21.875 C24.9375 24.0625 24.9375 24.0625 24.875 26.125 C23.80720271 28.33178107 22.83371305 29.50829798 20.9375 31.0625 C16.77892972 31.8704508 12.86992338 31.36696478 8.875 30.0625 C3.26762392 26.24471203 -2.13735737 21.27842809 -5.0625 15.0625 C-5.0625 14.4025 -5.0625 13.7425 -5.0625 13.0625 C-5.7225 13.0625 -6.3825 13.0625 -7.0625 13.0625 C-7.67035141 5.88985331 -7.67035141 5.88985331 -4.8125 2 C-2.0625 0.0625 -2.0625 0.0625 0 0 Z " fill="#FBFEFD" transform="translate(190.0625,167.9375)"/>
<path d="M0 0 C1.32 0 2.64 0 4 0 C4 0.66 4 1.32 4 2 C5.98 2 7.96 2 10 2 C10.33 4.31 10.66 6.62 11 9 C11.66 9 12.32 9 13 9 C13 10.32 13 11.64 13 13 C12.01 13 11.02 13 10 13 C10 14.98 10 16.96 10 19 C8.02 19 6.04 19 4 19 C4 19.99 4 20.98 4 22 C2.68 22 1.36 22 0 22 C-0.33 21.34 -0.66 20.68 -1 20 C-4.02934491 19.34227572 -4.02934491 19.34227572 -7 19 C-7 17.02 -7 15.04 -7 13 C-7.66 13 -8.32 13 -9 13 C-9 11.68 -9 10.36 -9 9 C-8.34 9 -7.68 9 -7 9 C-6.67 7.02 -6.34 5.04 -6 3 C-4.02 2.67 -2.04 2.34 0 2 C0 1.34 0 0.68 0 0 Z " fill="#4387B2" transform="translate(50,178)"/>
<path d="M0 0 C1.98 0.99 3.96 1.98 6 3 C4.95125002 5.62187494 4.35068687 6.79371361 1.875 8.25 C1.25625 8.4975 0.6375 8.745 0 9 C0 8.01 0 7.02 0 6 C-6.3059368 8.45917797 -11.36843952 10.80624107 -15.10546875 16.76171875 C-17.19204125 21.98270583 -16.97418966 28.94578378 -15.27734375 34.265625 C-12.77643437 38.92318902 -9.25760405 41.77967349 -4.6875 44.25 C1.57859153 45.99867671 6.50646563 45.47470636 12.109375 42.3203125 C17.13666326 38.80952029 20.01381276 35.07441033 21.375 29.0625 C21.6049949 27.71184368 21.82134414 26.35840061 22 25 C22.99 25 23.98 25 25 25 C24.12635956 32.35062993 22.35449217 37.73069293 17 43 C10.39110201 47.83065637 3.99379349 48.78480441 -4 48 C-10.88068648 45.84084318 -15.03337402 39.94993898 -18.875 34.1875 C-20.92526174 28.37842508 -20.66040533 23.0854905 -18.8125 17.25 C-15.25242089 10.86640987 -11.55737762 7.04449675 -5 4 C-2.0625 3.75 -2.0625 3.75 0 4 C0 2.68 0 1.36 0 0 Z " fill="#72DCC8" transform="translate(222,56)"/>
<path d="M0 0 C2.64 0 5.28 0 8 0 C8 3.3 8 6.6 8 10 C8.66 9.67 9.32 9.34 10 9 C10 6.03 10 3.06 10 0 C12.97 0 15.94 0 19 0 C18.67 3.3 18.34 6.6 18 10 C17.34 10 16.68 10 16 10 C15.67 11.65 15.34 13.3 15 15 C13.02 15.66 11.04 16.32 9 17 C12.3 16.67 15.6 16.34 19 16 C18.67 16.66 18.34 17.32 18 18 C12.16375752 19.94541416 5.98712842 19.80832343 0.3125 17.5 C-0.450625 17.005 -1.21375 16.51 -2 16 C-1.01 15.34 -0.02 14.68 1 14 C0.34 14 -0.32 14 -1 14 C-1 13.34 -1 12.68 -1 12 C-0.01 11.67 0.98 11.34 2 11 C1.67 10.484375 1.34 9.96875 1 9.4375 C-0.32010877 6.21973488 -0.13242105 3.4429472 0 0 Z " fill="#8EE4D4" transform="translate(83,175)"/>
<path d="M0 0 C1.62463842 -0.05395478 3.24978541 -0.09277195 4.875 -0.125 C6.23238281 -0.15980469 6.23238281 -0.15980469 7.6171875 -0.1953125 C10 0 10 0 12 2 C12 2.99 12 3.98 12 5 C12.66 5.33 13.32 5.66 14 6 C14.60107745 9.31726705 14.74433485 12.63374215 15 16 C8.73 16 2.46 16 -4 16 C-4 7 -4 7 -2 3.5 C-1.62875 2.8296875 -1.2575 2.159375 -0.875 1.46875 C-0.58625 0.9840625 -0.2975 0.499375 0 0 Z " fill="#80E0CF" transform="translate(87,157)"/>
<path d="M0 0 C2.88575819 0.39803561 3.82189513 0.79009069 5.75 3.0625 C6.1625 3.701875 6.575 4.34125 7 5 C7.66 4.67 8.32 4.34 9 4 C11.17467322 8.34934645 10.79524861 14.55063429 9.31640625 19.10546875 C6.59903175 24.21323077 2.65433416 27.49348602 -2.3125 30.3125 C-6.21060288 31.30968911 -9.99922098 31.15689329 -14 31 C-11.56585336 29.72220502 -9.49161622 28.86044367 -6.8125 28.125 C-5.884375 27.75375 -4.95625 27.3825 -4 27 C-3.03122943 24.96756452 -3.03122943 24.96756452 -3 23 C-2.34 23 -1.68 23 -1 23 C-1.00523682 22.44538086 -1.01047363 21.89076172 -1.01586914 21.31933594 C-1.03671031 18.79623557 -1.04968282 16.27315336 -1.0625 13.75 C-1.07087891 12.87730469 -1.07925781 12.00460938 -1.08789062 11.10546875 C-1.09111328 10.26113281 -1.09433594 9.41679687 -1.09765625 8.546875 C-1.10289307 7.77182617 -1.10812988 6.99677734 -1.11352539 6.19824219 C-1.00036998 4.00716402 -0.60552448 2.10362139 0 0 Z " fill="#77DECA" transform="translate(102,162)"/>
<path d="M0 0 C5.25971032 1.39227626 7.98511238 4.69171648 11 9 C13.4695967 14.05144779 13.82200359 19.47846071 13 25 C11.35026861 29.21305905 9.39947155 32.86356781 5.859375 35.73828125 C2.79035686 39.47139365 3.48739622 43.91988189 3.51171875 48.53710938 C3.40245796 54.13424179 2.10963021 57.32938479 -1 62 C-1.33 62 -1.66 62 -2 62 C-2.14522934 58.08372337 -2.23404757 54.16813847 -2.3125 50.25 C-2.35439453 49.13882813 -2.39628906 48.02765625 -2.43945312 46.8828125 C-2.56411175 38.60547994 -2.56411175 38.60547994 0.34375 35.484375 C1.65859375 34.74960938 1.65859375 34.74960938 3 34 C7.48441321 28.5079779 8.84387513 22.95477751 8.56640625 15.9375 C7.78235999 11.87127387 6.03811612 9.16455389 3.5078125 5.9375 C2.02790614 4.03585867 1.00391609 2.18327383 0 0 Z " fill="#A1EFE2" transform="translate(190,33)"/>
<path d="M0 0 C1.35434391 0.03544078 2.70855226 0.07674048 4.0625 0.125 C5.0525 0.125 6.0425 0.125 7.0625 0.125 C8.7125 0.125 10.3625 0.125 12.0625 0.125 C11.7325 5.405 11.4025 10.685 11.0625 16.125 C9.7425 16.125 8.4225 16.125 7.0625 16.125 C7.0625 15.465 7.0625 14.805 7.0625 14.125 C6.546875 14.29 6.03125 14.455 5.5 14.625 C2.28126586 15.28525316 -0.66027139 15.30375792 -3.9375 15.125 C-4.9275 14.465 -5.9175 13.805 -6.9375 13.125 C-6.6075 12.135 -6.2775 11.145 -5.9375 10.125 C-3.6275 10.785 -1.3175 11.445 1.0625 12.125 C-0.44413783 9.11172434 -2.96916411 8.51443382 -5.9375 7.125 C-6.0625 4.75 -6.0625 4.75 -5.9375 2.125 C-3.9375 0.125 -3.9375 0.125 0 0 Z " fill="#4286B2" transform="translate(154.9375,55.875)"/>
<path d="M0 0 C2.43785701 0.38403357 2.43785701 0.38403357 5.55859375 -0.44140625 C8.24609375 -0.75390625 8.24609375 -0.75390625 10.68359375 0.80859375 C12.24609375 3.24609375 12.24609375 3.24609375 12.12109375 6.37109375 C11.24609375 9.24609375 11.24609375 9.24609375 9.24609375 11.24609375 C6.26641799 11.68902917 3.25497509 11.57023803 0.24609375 11.55859375 C-0.58664063 11.57470703 -1.419375 11.59082031 -2.27734375 11.60742188 C-3.47230469 11.60838867 -3.47230469 11.60838867 -4.69140625 11.609375 C-5.42230469 11.61235596 -6.15320313 11.61533691 -6.90625 11.6184082 C-8.75390625 11.24609375 -8.75390625 11.24609375 -10.75390625 8.24609375 C-11.17256234 4.89684504 -11.36045274 3.06361293 -9.31640625 0.30859375 C-5.93870776 -1.09191538 -3.55433597 -0.56612576 0 0 Z " fill="#FAFCFC" transform="translate(122.75390625,39.75390625)"/>
<path d="M0 0 C4.43024874 0.87022743 5.91370196 2.00398461 8.5 5.6875 C9.12601538 9.65226406 9.15946039 11.68512021 6.9375 15.0625 C3.67160572 17.23976285 1.42016134 17.6875 -2.5 17.6875 C-6.28644566 15.71196313 -7.27321363 14.3678591 -8.625 10.3125 C-8.5 6.6875 -8.5 6.6875 -6.5 3.25 C-3.5 0.6875 -3.5 0.6875 0 0 Z " fill="#CAF4ED" transform="translate(78.5,208.3125)"/>
<path d="M0 0 C0 3.63 0 7.26 0 11 C0.99 10.67 1.98 10.34 3 10 C3.33 7.03 3.66 4.06 4 1 C4.99 1 5.98 1 7 1 C7.61307902 8.97002725 7.61307902 8.97002725 5.4375 12.625 C1.96901181 14.58158308 -0.15336048 13.78236736 -4 13 C-5.2375 13.061875 -6.475 13.12375 -7.75 13.1875 C-11 13 -11 13 -13 11.4375 C-14.43452262 7.94085111 -13.92093323 5.61795196 -13 2 C-9.64529375 -2.72853833 -5.13199573 -0.73314225 0 0 Z " fill="#F6FDFC" transform="translate(98,119)"/>
<path d="M0 0 C3.20087088 2.34210064 6.2284128 4.63321222 8.5625 7.875 C8.9375 10.75 8.9375 10.75 8.5625 12.875 C7.985 12.09125 7.4075 11.3075 6.8125 10.5 C4.73352363 8.07452756 3.47209667 7.01805583 0.5625 5.875 C0.2325 7.195 -0.0975 8.515 -0.4375 9.875 C-0.4375 8.885 -0.4375 7.895 -0.4375 6.875 C-1.4275 6.545 -2.4175 6.215 -3.4375 5.875 C-3.7675 4.555 -4.0975 3.235 -4.4375 1.875 C-7.7375 1.875 -11.0375 1.875 -14.4375 1.875 C-15.0975 3.195 -15.7575 4.515 -16.4375 5.875 C-15.7775 6.205 -15.1175 6.535 -14.4375 6.875 C-15.4275 6.875 -16.4175 6.875 -17.4375 6.875 C-18.0975 8.855 -18.7575 10.835 -19.4375 12.875 C-19.7675 12.875 -20.0975 12.875 -20.4375 12.875 C-20.4375 10.895 -20.4375 8.915 -20.4375 6.875 C-21.0975 6.875 -21.7575 6.875 -22.4375 6.875 C-26.2890107 12.73599454 -26.14261266 19.02141138 -26.4375 25.875 C-29.08266087 23.22983913 -28.76623984 21.87443485 -28.8125 18.1875 C-28.66653048 11.39991714 -27.31616153 8.05072242 -22.84765625 3.12109375 C-16.34662517 -2.80267875 -8.07394394 -2.64238165 0 0 Z " fill="#69DAC4" transform="translate(101.4375,156.125)"/>
<path d="M0 0 C0.33 0 0.66 0 1 0 C1 1.65 1 3.3 1 5 C1.804375 5.28875 2.60875 5.5775 3.4375 5.875 C6 7 6 7 7 9 C7.66739635 13.85292492 7.75085716 16.99885712 4.75 21 C2 23 2 23 -2 24 C-2 17.07 -2 10.14 -2 3 C-1.34 3 -0.68 3 0 3 C0 2.01 0 1.02 0 0 Z " fill="#2E5A7B" transform="translate(182,132)"/>
<path d="M0 0 C1.65 0 3.3 0 5 0 C5.33 3.3 5.66 6.6 6 10 C7.32 10.33 8.64 10.66 10 11 C10 7.37 10 3.74 10 0 C11.65 0 13.3 0 15 0 C15.6132879 8.77342419 15.6132879 8.77342419 13.4375 13.125 C11 15 11 15 7.5 15.625 C4 15 4 15 1.5625 13.125 C-0.6355471 8.72890579 -0.33729606 4.82520752 0 0 Z " fill="#5C97BC" transform="translate(132,56)"/>
<path d="M0 0 C0 1.32 0 2.64 0 4 C0.66 4 1.32 4 2 4 C1.34 6.31 0.68 8.62 0 11 C-4.01804691 11.84098656 -7.01803543 12.05404945 -11 11 C-11.90765496 6.3709597 -12.45297884 3.17006403 -10 -1 C-5.95821645 -2.34726118 -3.96013719 -1.32004573 0 0 Z " fill="#7ADFCC" transform="translate(119,89)"/>
<path d="M0 0 C1.28571429 7.42857143 1.28571429 7.42857143 0 11 C-7.42857143 12.28571429 -7.42857143 12.28571429 -11 11 C-11 9.68 -11 8.36 -11 7 C-11.66 7 -12.32 7 -13 7 C-12.67 4.69 -12.34 2.38 -12 0 C-7.74433453 -1.16063604 -4.3164922 -0.76173392 0 0 Z " fill="#5295B9" transform="translate(205,104)"/>
<path d="M0 0 C0.99 0.66 1.98 1.32 3 2 C3.51078805 5.3201223 3.66970675 7.78017699 2.015625 10.79296875 C0.75 12.4375 0.75 12.4375 -2 15 C-3.32 15 -4.64 15 -6 15 C-5.39009109 11.44219804 -4.4216319 8.3171411 -3 5 C-6.11785113 5.64644661 -6.11785113 5.64644661 -7 8 C-8.65 8 -10.3 8 -12 8 C-11.65447612 5.44312331 -11.24912987 3.42498625 -9.9375 1.1875 C-6.85708253 -0.7004978 -3.51857662 -0.54623064 0 0 Z " fill="#4085B1" transform="translate(218,218)"/>
<path d="M0 0 C1.50433594 0.01353516 1.50433594 0.01353516 3.0390625 0.02734375 C3.80992188 0.03894531 4.58078125 0.05054687 5.375 0.0625 C5.045 0.7225 4.715 1.3825 4.375 2.0625 C2.78200105 2.37587684 1.17388931 2.61432035 -0.4375 2.8125 C-4.35219266 3.53598905 -5.39168296 3.82918296 -8.3125 6.75 C-9.91980337 10.80652756 -9.86014745 12.89387737 -8.625 17.0625 C-7.40064845 19.70487846 -7.40064845 19.70487846 -4.625 21.0625 C-0.9340337 21.38692211 2.68036308 21.29182229 6.375 21.0625 C6.375 22.0525 6.375 23.0425 6.375 24.0625 C2.31828645 25.41473785 -1.38334954 25.60668363 -5.625 25.0625 C-9.24418516 22.90638969 -11.0297467 20.9049797 -12.625 17.0625 C-13.26595668 12.9738711 -13.58074033 8.83541608 -11.57421875 5.11328125 C-7.87287829 0.60397856 -5.61868747 -0.06533358 0 0 Z " fill="#F6FDFC" transform="translate(91.625,112.9375)"/>
<path d="M0 0 C0.33 0 0.66 0 1 0 C1 1.98 1 3.96 1 6 C0.505 4.515 0.505 4.515 0 3 C-0.66 3 -1.32 3 -2 3 C-2 3.99 -2 4.98 -2 6 C-12.56 6 -23.12 6 -34 6 C-33.67 4.68 -33.34 3.36 -33 2 C-31.0625 1.4375 -31.0625 1.4375 -29 1 C-28.67 1.33 -28.34 1.66 -28 2 C-26.845 2 -25.69 2 -24.5 2 C-23.345 2 -22.19 2 -21 2 C-20.67 2.33 -20.34 2.66 -20 3 C-19.01 2.67 -18.02 2.34 -17 2 C-15.66474283 1.92026524 -14.32587917 1.89228662 -12.98828125 1.90234375 C-11.85229492 1.90717773 -11.85229492 1.90717773 -10.69335938 1.91210938 C-9.51483398 1.92467773 -9.51483398 1.92467773 -8.3125 1.9375 C-7.51521484 1.94201172 -6.71792969 1.94652344 -5.89648438 1.95117188 C-3.93095743 1.9629415 -1.96546915 1.98087652 0 2 C0 1.34 0 0.68 0 0 Z " fill="#A6A8AA" transform="translate(139,283)"/>
<path d="M0 0 C1.875 1.1875 1.875 1.1875 3 3 C2.77669287 6.64734979 2.61627165 8.38372835 0 11 C-3.5 11.3125 -3.5 11.3125 -7 11 C-9.31361802 7.52957297 -9.51020728 6.08165827 -9 2 C-6.13326387 -1.29143778 -4.01983549 -1.44301787 0 0 Z " fill="#85B3CD" transform="translate(132,40)"/>
<path d="M0 0 C0.33 0 0.66 0 1 0 C0.98428955 0.72590332 0.9685791 1.45180664 0.95239258 2.19970703 C0.88979645 5.50805788 0.85093088 8.81628381 0.8125 12.125 C0.78736328 13.26710937 0.76222656 14.40921875 0.73632812 15.5859375 C0.57266793 23.74911479 0.57266793 23.74911479 4 31 C7.7159964 34.28411304 12.11780142 35.52368794 17 36 C17 35.34 17 34.68 17 34 C18.32 34 19.64 34 21 34 C21 35.65 21 37.3 21 39 C13.03882769 38.63142721 6.57921729 36.87547855 0.7578125 31.1875 C-3.56583052 25.98285113 -2.44418916 20.00578905 -1.9375 13.625 C-1.87111328 12.42488281 -1.80472656 11.22476563 -1.73632812 9.98828125 C-1.20410451 1.20410451 -1.20410451 1.20410451 0 0 Z " fill="#5783A2" transform="translate(120,135)"/>
<path d="M0 0 C2.64 0 5.28 0 8 0 C8 1.32 8 2.64 8 4 C8.99 4 9.98 4 11 4 C11.66 2.68 12.32 1.36 13 0 C13 3.10551666 12.4606285 4.35261084 11 7 C11.99 7 12.98 7 14 7 C14 6.01 14 5.02 14 4 C14.66 4 15.32 4 16 4 C16.93423645 7.01031744 17.04449911 7.86650268 16 11 C15.34 11 14.68 11 14 11 C14 10.34 14 9.68 14 9 C12.35 9 10.7 9 9 9 C9 9.66 9 10.32 9 11 C6.03 11 3.06 11 0 11 C2 7 2 7 4 5 C4.6425235 2.93125966 4.6425235 2.93125966 5 1 C3.35 1.33 1.7 1.66 0 2 C0 1.34 0 0.68 0 0 Z " fill="#BAEBE9" transform="translate(208,78)"/>
<path d="M0 0 C0.66 0.33 1.32 0.66 2 1 C1.67 8.59 1.34 16.18 1 24 C0.67 22.68 0.34 21.36 0 20 C-1.96672915 18.8499169 -1.96672915 18.8499169 -4 18 C-5.38226016 15.23547967 -5.09525387 12.9538637 -5.0625 9.875 C-5.05347656 8.77929688 -5.04445313 7.68359375 -5.03515625 6.5546875 C-5.02355469 5.71164063 -5.01195313 4.86859375 -5 4 C-3.35 3.34 -1.7 2.68 0 2 C0 1.34 0 0.68 0 0 Z " fill="#1B4465" transform="translate(118,135)"/>
<path d="M0 0 C3.5 0.25 3.5 0.25 5.5 2.25 C5.833728 5.38704316 6.02849028 7.41554166 4.3125 10.125 C1.84492892 11.65659584 0.35480169 11.67822025 -2.5 11.25 C-4.3125 10.125 -4.3125 10.125 -5.5 8.25 C-5.8125 5.1875 -5.8125 5.1875 -5.5 2.25 C-3.5 0.25 -3.5 0.25 0 0 Z " fill="#C1F2EB" transform="translate(238.5,193.75)"/>
<path d="M0 0 C1.65 0 3.3 0 5 0 C4.67 5.28 4.34 10.56 4 16 C2.68 16 1.36 16 0 16 C0 15.34 0 14.68 0 14 C-0.66 13.67 -1.32 13.34 -2 13 C-2 11.35 -2 9.7 -2 8 C-3.98 7.01 -5.96 6.02 -8 5 C-8 4.67 -8 4.34 -8 4 C-5.36 3.67 -2.72 3.34 0 3 C0 2.01 0 1.02 0 0 Z " fill="#C2D8E5" transform="translate(162,56)"/>
<path d="M0 0 C1.32 0 2.64 0 4 0 C4 0.66 4 1.32 4 2 C4.66 2 5.32 2 6 2 C6 3.32 6 4.64 6 6 C-1.59 6 -9.18 6 -17 6 C-17 4.68 -17 3.36 -17 2 C-11.72 2 -6.44 2 -1 2 C-0.67 1.34 -0.34 0.68 0 0 Z " fill="#717374" transform="translate(187,283)"/>
<path d="M0 0 C9.9 0 19.8 0 30 0 C30 0.99 30 1.98 30 3 C20.1 3 10.2 3 0 3 C0 2.01 0 1.02 0 0 Z " fill="#DAF7F3" transform="translate(221,127)"/>
<path d="M0 0 C9.9 0 19.8 0 30 0 C30 0.99 30 1.98 30 3 C20.1 3 10.2 3 0 3 C0 2.01 0 1.02 0 0 Z " fill="#DAF7F3" transform="translate(221,114)"/>
<path d="M0 0 C0.74958984 0.00902344 1.49917969 0.01804688 2.27148438 0.02734375 C4.11862654 0.05087422 5.96560412 0.08674439 7.8125 0.125 C7.8125 0.785 7.8125 1.445 7.8125 2.125 C6.4925 2.125 5.1725 2.125 3.8125 2.125 C3.8125 5.425 3.8125 8.725 3.8125 12.125 C3.1525 12.125 2.4925 12.125 1.8125 12.125 C1.8125 8.825 1.8125 5.525 1.8125 2.125 C-1.8175 2.785 -5.4475 3.445 -9.1875 4.125 C-9.1875 5.775 -9.1875 7.425 -9.1875 9.125 C-6.8775 9.455 -4.5675 9.785 -2.1875 10.125 C-2.5175 10.785 -2.8475 11.445 -3.1875 12.125 C-8.53715035 12.48164336 -8.53715035 12.48164336 -11.125 11.0625 C-12.85415678 7.90933176 -12.0465699 5.49991745 -11.1875 2.125 C-7.39586973 -0.40275351 -4.37875969 -0.09943035 0 0 Z " fill="#8DB8D0" transform="translate(180.1875,38.875)"/>
<path d="M0 0 C1.1875 1.5625 1.1875 1.5625 1.1875 3.5625 C0.5275 3.5625 -0.1325 3.5625 -0.8125 3.5625 C-0.8125 6.5325 -0.8125 9.5025 -0.8125 12.5625 C-2.1325 12.8925 -3.4525 13.2225 -4.8125 13.5625 C-4.8125 9.9325 -4.8125 6.3025 -4.8125 2.5625 C-5.8025 2.2325 -6.7925 1.9025 -7.8125 1.5625 C-7.1525 1.2325 -6.4925 0.9025 -5.8125 0.5625 C-8.7825 0.2325 -11.7525 -0.0975 -14.8125 -0.4375 C-14.8125 -0.7675 -14.8125 -1.0975 -14.8125 -1.4375 C-3.90953337 -3.1006644 -3.90953337 -3.1006644 0 0 Z " fill="#EEFBF9" transform="translate(102.8125,116.4375)"/>
<path d="M0 0 C2.97 0.33 5.94 0.66 9 1 C8.45660208 5.56454251 7.20536179 8.9728176 5 13 C4.67 13 4.34 13 4 13 C4 10.36 4 7.72 4 5 C2.68 5 1.36 5 0 5 C-0.99 8.3 -1.98 11.6 -3 15 C-4.28497537 11.14507389 -3.4052209 9.59653164 -2.0625 5.8125 C-1.68222656 4.72582031 -1.30195313 3.63914062 -0.91015625 2.51953125 C-0.60980469 1.68808594 -0.30945313 0.85664062 0 0 Z " fill="#79B5CA" transform="translate(230,76)"/>
<path d="M0 0 C2.64 0 5.28 0 8 0 C8 2.97 8 5.94 8 9 C5.69 9 3.38 9 1 9 C-0.4783226 6.04335481 -0.06032783 3.25770263 0 0 Z " fill="#BEF1E9" transform="translate(83,175)"/>
<path d="M0 0 C2.97 0.495 2.97 0.495 6 1 C7.28571429 8.42857143 7.28571429 8.42857143 6 12 C3.69 12.33 1.38 12.66 -1 13 C-1.33 12.01 -1.66 11.02 -2 10 C-0.35 10 1.3 10 3 10 C2.67 8.35 2.34 6.7 2 5 C-0.97 4.505 -0.97 4.505 -4 4 C-4 3.34 -4 2.68 -4 2 C-2.68 2 -1.36 2 0 2 C0 1.34 0 0.68 0 0 Z " fill="#4B90B7" transform="translate(199,103)"/>
<path d="M0 0 C2.33944736 0.28730055 4.6739143 0.61936779 7 1 C7 3.64 7 6.28 7 9 C4.36 9 1.72 9 -1 9 C-1.09765625 2.84765625 -1.09765625 2.84765625 -1 1 C-0.67 0.67 -0.34 0.34 0 0 Z " fill="#BFF2EA" transform="translate(84,164)"/>
<path d="M0 0 C2.375 -0.125 2.375 -0.125 5 0 C7 2 7 2 7.25 4.5 C7 7 7 7 5 9 C2.38419521 8.6730244 0.35921863 8.17960932 -2 7 C-1.125 2.25 -1.125 2.25 0 0 Z " fill="#B5E6E5" transform="translate(49,184)"/>
<path d="M0 0 C1.98 0 3.96 0 6 0 C6 1.32 6 2.64 6 4 C6.66 4 7.32 4 8 4 C7.34 6.31 6.68 8.62 6 11 C2.97747444 11.68693763 0.71097581 12.19215562 -2.3125 11.375 C-4.61802735 9.49642216 -4.69626863 7.88544805 -5 5 C-4.34 4.67 -3.68 4.34 -3 4 C-3 4.99 -3 5.98 -3 7 C-1.02 7 0.96 7 3 7 C3.33 5.35 3.66 3.7 4 2 C2.68 1.34 1.36 0.68 0 0 Z " fill="#68DAC4" transform="translate(113,89)"/>
<path d="M0 0 C3.0625 0.1875 3.0625 0.1875 5.0625 2.1875 C4.70950993 5.62915321 4.01668308 7.25622538 2.0625 10.1875 C1.0725 10.1875 0.0825 10.1875 -0.9375 10.1875 C-0.9375 9.1975 -0.9375 8.2075 -0.9375 7.1875 C-0.2775 7.1875 0.3825 7.1875 1.0625 7.1875 C1.0625 6.1975 1.0625 5.2075 1.0625 4.1875 C0.0725 4.1875 -0.9175 4.1875 -1.9375 4.1875 C-1.9375 4.8475 -1.9375 5.5075 -1.9375 6.1875 C-2.9275 6.1875 -3.9175 6.1875 -4.9375 6.1875 C-3.87127483 0.24710265 -3.87127483 0.24710265 0 0 Z " fill="#4287B2" transform="translate(213.9375,33.8125)"/>
<path d="M0 0 C3.0625 0.1875 3.0625 0.1875 5.0625 2.1875 C4.70950993 5.62915321 4.01668308 7.25622538 2.0625 10.1875 C1.0725 10.1875 0.0825 10.1875 -0.9375 10.1875 C-0.36165568 7.80185923 0.28477595 5.52067216 1.0625 3.1875 C0.0725 3.8475 -0.9175 4.5075 -1.9375 5.1875 C-2.9275 5.1875 -3.9175 5.1875 -4.9375 5.1875 C-3.82120474 0.24390669 -3.82120474 0.24390669 0 0 Z " fill="#65D9C2" transform="translate(79.9375,42.8125)"/>
<path d="M0 0 C0.66 0 1.32 0 2 0 C2.69965443 1.26418246 3.38434763 2.53665402 4.0625 3.8125 C4.44535156 4.52019531 4.82820312 5.22789063 5.22265625 5.95703125 C6 8 6 8 5 11 C4.67 10.01 4.34 9.02 4 8 C1.02934491 8.34227572 1.02934491 8.34227572 -2 9 C-2.33 9.66 -2.66 10.32 -3 11 C-3.66 10.67 -4.32 10.34 -5 10 C-3.35 6.7 -1.7 3.4 0 0 Z " fill="#82B1CC" transform="translate(161,40)"/>
<path d="M0 0 C3 0.125 3 0.125 4 1.125 C4.125 3.625 4.125 3.625 4 6.125 C3 7.125 3 7.125 0 7.25 C-3 7.125 -3 7.125 -4 6.125 C-4.125 3.625 -4.125 3.625 -4 1.125 C-3 0.125 -3 0.125 0 0 Z " fill="#F6F9FB" transform="translate(129,41.875)"/>
<path d="M0 0 C0.65226562 0.42152344 1.30453125 0.84304687 1.9765625 1.27734375 C8.50098463 5.44023986 8.50098463 5.44023986 16 7 C16 6.34 16 5.68 16 5 C17.32 5 18.64 5 20 5 C20 6.65 20 8.3 20 10 C12.87748634 9.670254 6.75969275 8.28335158 1.2734375 3.4921875 C0 2 0 2 0 0 Z " fill="#49546A" transform="translate(121,164)"/>
<path d="M0 0 C-0.33 1.98 -0.66 3.96 -1 6 C-3.31 6 -5.62 6 -8 6 C-8.66 4.35 -9.32 2.7 -10 1 C-6.52674819 -0.1577506 -3.63932552 -0.06866652 0 0 Z " fill="#76787B" transform="translate(164,283)"/>
<path d="M0 0 C1.32 1.32 2.64 2.64 4 4 C3 7 3 7 0 8.6875 C-4.30110524 10.40436529 -8.43709444 10.27936157 -13 10 C-10.56585336 8.72220502 -8.49161622 7.86044367 -5.8125 7.125 C-4.884375 6.75375 -3.95625 6.3825 -3 6 C-2.03122943 3.96756452 -2.03122943 3.96756452 -2 2 C-1.34 2 -0.68 2 0 2 C0 1.34 0 0.68 0 0 Z " fill="#69DAC4" transform="translate(101,183)"/>
<path d="M0 0 C1.65 0 3.3 0 5 0 C5.66 3.63 6.32 7.26 7 11 C6.01 11 5.02 11 4 11 C0 4.5 0 4.5 0 0 Z " fill="#BBF1E8" transform="translate(75,175)"/>
<path d="M0 0 C4.10850354 0.69504759 7.84892196 1.91871521 11.75 3.375 C12.89984375 3.79523437 14.0496875 4.21546875 15.234375 4.6484375 C16.14703125 5.09445313 17.0596875 5.54046875 18 6 C18.33 6.99 18.66 7.98 19 9 C18.34 9.66 17.68 10.32 17 11 C16.27296875 10.52820313 16.27296875 10.52820313 15.53125 10.046875 C11.95180903 7.76153961 8.39472335 5.64891806 4.5625 3.8125 C1 2 1 2 0 0 Z " fill="#B4F2E7" transform="translate(172,24)"/>
<path d="M0 0 C0.99 0.33 1.98 0.66 3 1 C2.34 4.3 1.68 7.6 1 11 C-0.65 11 -2.3 11 -4 11 C-3.48964169 6.6109185 -2.47785723 3.66291938 0 0 Z " fill="#BEF2EA" transform="translate(79,162)"/>
<path d="M0 0 C0 0.66 0 1.32 0 2 C-1.98 2.33 -3.96 2.66 -6 3 C-6 4.65 -6 6.3 -6 8 C-3.03 8.495 -3.03 8.495 0 9 C-0.33 9.66 -0.66 10.32 -1 11 C-3.875 11.1875 -3.875 11.1875 -7 11 C-9.31361802 7.52957297 -9.51020728 6.08165827 -9 2 C-6.09797328 -1.3319566 -4.08536588 -1.24830624 0 0 Z " fill="#8BB7D0" transform="translate(121,40)"/>
<path d="M0 0 C2.31 0 4.62 0 7 0 C6.67 2.31 6.34 4.62 6 7 C4.02 7 2.04 7 0 7 C0 4.69 0 2.38 0 0 Z " fill="#C6F4EC" transform="translate(94,176)"/>
<path d="M0 0 C1.98 0 3.96 0 6 0 C6.33 2.31 6.66 4.62 7 7 C4.69 7 2.38 7 0 7 C0 4.69 0 2.38 0 0 Z " fill="#C6F4EC" transform="translate(94,165)"/>
<path d="M0 0 C0.79664063 0.08378906 1.59328125 0.16757813 2.4140625 0.25390625 C10.24114462 1.04727138 10.24114462 1.04727138 18 0 C13.30477759 4.85172982 13.30477759 4.85172982 9.25 5.3125 C5.21262108 4.92429049 3.15454814 3.47857354 0 1 C0 0.67 0 0.34 0 0 Z " fill="#F5A28E" transform="translate(141,162)"/>
<path d="M0 0 C4 2 4 2 5.25 5.5 C6 9 6 9 6 11 C4.35 11 2.7 11 1 11 C0.67 7.37 0.34 3.74 0 0 Z " fill="#B9F0E8" transform="translate(103,162)"/>
<path d="M0 0 C1.485 0.99 1.485 0.99 3 2 C3.1875 4.625 3.1875 4.625 3 7 C4.98 7.99 6.96 8.98 9 10 C9 10.66 9 11.32 9 12 C7.88625 11.79375 6.7725 11.5875 5.625 11.375 C4.42875 11.25125 3.2325 11.1275 2 11 C1.34 11.66 0.68 12.32 0 13 C-1.06671952 9.79984144 -0.94845472 8.11455706 -0.5625 4.8125 C-0.46066406 3.91144531 -0.35882813 3.01039062 -0.25390625 2.08203125 C-0.17011719 1.39496094 -0.08632812 0.70789062 0 0 Z " fill="#E4EEF3" transform="translate(147,56)"/>
<path d="M0 0 C1.65 0 3.3 0 5 0 C4.49357808 4.35522853 3.61588503 7.44239635 1 11 C0.34 11 -0.32 11 -1 11 C-0.67 7.37 -0.34 3.74 0 0 Z " fill="#BAF1E8" transform="translate(104,175)"/>
<path d="M0 0 C1.32 0 2.64 0 4 0 C4 0.66 4 1.32 4 2 C4.66 2 5.32 2 6 2 C6 3.32 6 4.64 6 6 C-1.14677104 6.16242661 -1.14677104 6.16242661 -4 5 C-4.33 4.01 -4.66 3.02 -5 2 C-3.68 2 -2.36 2 -1 2 C-0.67 1.34 -0.34 0.68 0 0 Z " fill="#87898A" transform="translate(187,283)"/>
<path d="M0 0 C1.2065625 0.0309375 1.2065625 0.0309375 2.4375 0.0625 C3.0625 2.4375 3.0625 2.4375 3.4375 5.0625 C2.7775 5.7225 2.1175 6.3825 1.4375 7.0625 C-0.6875 6.6875 -0.6875 6.6875 -2.5625 6.0625 C-2.94468767 4.40635343 -3.27645102 2.73792976 -3.5625 1.0625 C-2.5625 0.0625 -2.5625 0.0625 0 0 Z " fill="#CEF5EF" transform="translate(91.5625,121.9375)"/>
<path d="M0 0 C3.76687864 1.88343932 4.79421646 2.69132469 7 6 C7.33 4.02 7.66 2.04 8 0 C8.33 0 8.66 0 9 0 C9 3.63 9 7.26 9 11 C6.66666667 8.66666667 4.33333333 6.33333333 2 4 C1.67 6.31 1.34 8.62 1 11 C0.67 11 0.34 11 0 11 C0 7.37 0 3.74 0 0 Z " fill="#5798BC" transform="translate(137,40)"/>
<path d="M0 0 C1.85546875 0.2421875 1.85546875 0.2421875 4 1 C6.78586025 4.89853116 8.44588814 9.26969293 7.75 14.0625 C7.5025 15.031875 7.255 16.00125 7 17 C4.97962096 13.24662343 3.91326303 9.4310865 2.78125 5.33984375 C2.03774327 2.77209445 2.03774327 2.77209445 0 0 Z " fill="#564843" transform="translate(175,118)"/>
<path d="M0 0 C0.99 0.33 1.98 0.66 3 1 C3.12117187 1.89203125 3.24234375 2.7840625 3.3671875 3.703125 C3.53476563 4.87359375 3.70234375 6.0440625 3.875 7.25 C4.03742188 8.41015625 4.19984375 9.5703125 4.3671875 10.765625 C4.91820431 13.58193313 5.55796482 15.55217557 7 18 C6.01 18 5.02 18 4 18 C0.28392452 11.72912263 -0.53449652 7.24539726 0 0 Z " fill="#7CDFCD" transform="translate(202,77)"/>
<path d="M0 0 C1.65 0 3.3 0 5 0 C4.67 3.3 4.34 6.6 4 10 C3.01 10 2.02 10 1 10 C0.67 6.7 0.34 3.4 0 0 Z " fill="#5894BB" transform="translate(162,56)"/>
<path d="M0 0 C0.625 1.875 0.625 1.875 1 4 C0.34 4.66 -0.32 5.32 -1 6 C-3.625 5.625 -3.625 5.625 -6 5 C-6 3.35 -6 1.7 -6 0 C-3.50907189 -1.24546405 -2.58919267 -0.7767578 0 0 Z " fill="#3A87AE" transform="translate(53,152)"/>
<path d="M0 0 C3.3 0 6.6 0 10 0 C10 1.32 10 2.64 10 4 C7.03 4 4.06 4 1 4 C0.67 2.68 0.34 1.36 0 0 Z " fill="#B25316" transform="translate(161,136)"/>
<path d="M0 0 C2.97 0 5.94 0 9 0 C9 1.32 9 2.64 9 4 C5.7 4 2.4 4 -1 4 C-0.67 2.68 -0.34 1.36 0 0 Z " fill="#B35418" transform="translate(130,136)"/>
<path d="M0 0 C1.98 0 3.96 0 6 0 C6.6875 1.75 6.6875 1.75 7 4 C5.5625 6.25 5.5625 6.25 4 8 C5.32 8.33 6.64 8.66 8 9 C8 9.66 8 10.32 8 11 C5.36 11 2.72 11 0 11 C1.15173355 8.53199953 2.04783565 6.95216435 4 5 C4.6425235 2.93125966 4.6425235 2.93125966 5 1 C3.35 1.33 1.7 1.66 0 2 C0 1.34 0 0.68 0 0 Z " fill="#63A5C1" transform="translate(208,78)"/>
<path d="M0 0 C0.8723412 2.99480917 1.10829766 5.63575911 1.0625 8.75 C1.05347656 9.54921875 1.04445313 10.3484375 1.03515625 11.171875 C1.02355469 11.77515625 1.01195313 12.3784375 1 13 C0.67 13 0.34 13 0 13 C-0.33 9.04 -0.66 5.08 -1 1 C-5.38814114 3.63252093 -5.38814114 3.63252093 -9.3125 6.6875 C-10.199375 7.450625 -11.08625 8.21375 -12 9 C-10.13346484 2.89133947 -6.64007326 -0.75886552 0 0 Z " fill="#3FD0B4" transform="translate(114,200)"/>
<path d="M0 0 C1.65 0.33 3.3 0.66 5 1 C4.67 2.65 4.34 4.3 4 6 C2.35 5.67 0.7 5.34 -1 5 C-0.67 3.35 -0.34 1.7 0 0 Z " fill="#468BB4" transform="translate(212,235)"/>
<path d="M0 0 C0 3.10551666 -0.5393715 4.35261084 -2 7 C-1.01 7 -0.02 7 1 7 C1 6.01 1 5.02 1 4 C1.66 4 2.32 4 3 4 C3.93423645 7.01031744 4.04449911 7.86650268 3 11 C2.34 11 1.68 11 1 11 C1 10.01 1 9.02 1 8 C-0.65 8 -2.3 8 -4 8 C-2.25 2.25 -2.25 2.25 0 0 Z " fill="#5D9FBE" transform="translate(221,78)"/>
<path d="M0 0 C0.99 0 1.98 0 3 0 C3 3.3 3 6.6 3 10 C2.01 10 1.02 10 0 10 C0 6.7 0 3.4 0 0 Z " fill="#347CAC" transform="translate(143,57)"/>
<path d="M0 0 C0.66 0 1.32 0 2 0 C3.1577506 3.47325181 3.06866652 6.36067448 3 10 C2.01 10.33 1.02 10.66 0 11 C0 7.37 0 3.74 0 0 Z " fill="#CAF4ED" transform="translate(99,119)"/>
<path d="M0 0 C0.66 0 1.32 0 2 0 C2.06058594 0.77085938 2.12117187 1.54171875 2.18359375 2.3359375 C2.26738281 3.33882812 2.35117188 4.34171875 2.4375 5.375 C2.55931641 6.87160156 2.55931641 6.87160156 2.68359375 8.3984375 C2.84965626 10.97927613 2.84965626 10.97927613 4 13 C2.68 12.67 1.36 12.34 0 12 C0 8.04 0 4.08 0 0 Z " fill="#387DAD" transform="translate(134,57)"/>
<path d="M0 0 C2.97 0 5.94 0 9 0 C9 0.66 9 1.32 9 2 C7.68 2 6.36 2 5 2 C5 5.3 5 8.6 5 12 C4.67 12 4.34 12 4 12 C4 8.7 4 5.4 4 2 C2.68 2 1.36 2 0 2 C0 1.34 0 0.68 0 0 Z " fill="#6EA5C5" transform="translate(148,39)"/>
<path d="M0 0 C1.4540625 0.0309375 1.4540625 0.0309375 2.9375 0.0625 C-0.67578125 4.75 -0.67578125 4.75 -2.0625 6.0625 C-3.0525 6.0625 -4.0425 6.0625 -5.0625 6.0625 C-3.98897059 0.08140756 -3.98897059 0.08140756 0 0 Z " fill="#5597BB" transform="translate(214.0625,33.9375)"/>
<path d="M0 0 C1.98 0 3.96 0 6 0 C5.67 1.32 5.34 2.64 5 4 C3.35 4.33 1.7 4.66 0 5 C0 3.35 0 1.7 0 0 Z " fill="#B4EFE5" transform="translate(93,186)"/>
<path d="M0 0 C2.475 0.495 2.475 0.495 5 1 C5.33 2.32 5.66 3.64 6 5 C4.02 5 2.04 5 0 5 C0 3.35 0 1.7 0 0 Z " fill="#B8F0E7" transform="translate(93,157)"/>
<path d="M0 0 C0.99 0.33 1.98 0.66 3 1 C2.55037804 2.96035175 2.09001752 4.91824309 1.625 6.875 C1.36976562 7.96554688 1.11453125 9.05609375 0.8515625 10.1796875 C0 13 0 13 -2 15 C-1.85879286 13.06215735 -1.71187127 11.12473045 -1.5625 9.1875 C-1.48128906 8.10855469 -1.40007812 7.02960938 -1.31640625 5.91796875 C-1 3 -1 3 0 0 Z " fill="#4F3F36" transform="translate(119,122)"/>
<path d="M0 0 C7.75 -0.125 7.75 -0.125 10 1 C9.67 1.99 9.34 2.98 9 4 C6.69 4.33 4.38 4.66 2 5 C2 4.34 2 3.68 2 3 C2.99 2.67 3.98 2.34 5 2 C3.02 2 1.04 2 -1 2 C-0.67 1.34 -0.34 0.68 0 0 Z " fill="#5D97BC" transform="translate(151,56)"/>
<path d="M0 0 C0.33 0.66 0.66 1.32 1 2 C1.763125 2 2.52625 2 3.3125 2 C5.20833333 2 7.10416667 2 9 2 C8.67 3.32 8.34 4.64 8 6 C6.35 6 4.7 6 3 6 C3 5.01 3 4.02 3 3 C2.34 3 1.68 3 1 3 C0.67 3.99 0.34 4.98 0 6 C0 4.02 0 2.04 0 0 Z " fill="#9A9C9D" transform="translate(143,283)"/>
<path d="M0 0 C0.99 0.33 1.98 0.66 3 1 C5.00875442 0.72428861 7.01178687 0.39764263 9 0 C8.67 1.32 8.34 2.64 8 4 C5.69 4 3.38 4 1 4 C0.67 2.68 0.34 1.36 0 0 Z " fill="#A2A4A5" transform="translate(116,285)"/>
<path d="M0 0 C1.32 0 2.64 0 4 0 C4 1.65 4 3.3 4 5 C2.02 5 0.04 5 -2 5 C-1.34 3.35 -0.68 1.7 0 0 Z " fill="#BBF1E9" transform="translate(87,157)"/>
<path d="M0 0 C1.65 0.33 3.3 0.66 5 1 C4.67 2.32 4.34 3.64 4 5 C2.35 4.67 0.7 4.34 -1 4 C-0.67 2.68 -0.34 1.36 0 0 Z " fill="#B1E2E3" transform="translate(197,107)"/>
<path d="M0 0 C1.65 0 3.3 0 5 0 C5 1.65 5 3.3 5 5 C3.35 4.67 1.7 4.34 0 4 C0 2.68 0 1.36 0 0 Z " fill="#B9F0E8" transform="translate(111,92)"/>
<path d="M0 0 C1.32 0 2.64 0 4 0 C4 1.65 4 3.3 4 5 C2.35 4.67 0.7 4.34 -1 4 C-0.67 2.68 -0.34 1.36 0 0 Z " fill="#BBF1E8" transform="translate(87,186)"/>
<path d="M0 0 C0.99 0.33 1.98 0.66 3 1 C3 2.65 3 4.3 3 6 C2.01 6.33 1.02 6.66 0 7 C-0.38133299 5.0085944 -0.71325582 3.00720923 -1 1 C-0.67 0.67 -0.34 0.34 0 0 Z " fill="#474E4C" transform="translate(165,144)"/>
<path d="M0 0 C1.0326802 2.78823655 1.04509293 3.8677274 0.0625 6.75 C-0.288125 7.4925 -0.63875 8.235 -1 9 C-1.66 9 -2.32 9 -3 9 C-3.36923077 3.46153846 -3.36923077 3.46153846 -1.5 1.125 C-1.005 0.75375 -0.51 0.3825 0 0 Z " fill="#A34C13" transform="translate(122,126)"/>
<path d="M0 0 C0.33 0 0.66 0 1 0 C1.125 7.625 1.125 7.625 0 11 C-0.66 11 -1.32 11 -2 11 C-2.28571429 3.57142857 -2.28571429 3.57142857 0 0 Z " fill="#377EAF" transform="translate(80,89)"/>
<path d="M0 0 C2.31 0.33 4.62 0.66 7 1 C6.360625 1.2475 5.72125 1.495 5.0625 1.75 C2.81258459 2.81562433 2.81258459 2.81562433 2.25 5.125 C2.1675 5.74375 2.085 6.3625 2 7 C1.34 7 0.68 7 0 7 C0 6.34 0 5.68 0 5 C-0.66 5 -1.32 5 -2 5 C-2 4.34 -2 3.68 -2 3 C-1.01 2.67 -0.02 2.34 1 2 C0.67 1.34 0.34 0.68 0 0 Z " fill="#77DFCB" transform="translate(84,184)"/>
<path d="M0 0 C1.65 0 3.3 0 5 0 C4.67 1.32 4.34 2.64 4 4 C2.68 4.33 1.36 4.66 0 5 C0 3.35 0 1.7 0 0 Z " fill="#4FA3B7" transform="translate(257,136)"/>
<path d="M0 0 C1.485 0.99 1.485 0.99 3 2 C3.125 5 3.125 5 3 8 C3.33 8.66 3.66 9.32 4 10 C2.35 10.33 0.7 10.66 -1 11 C-1 10.01 -1 9.02 -1 8 C-0.34 8 0.32 8 1 8 C1 6.35 1 4.7 1 3 C0.34 2.67 -0.32 2.34 -1 2 C-0.67 1.34 -0.34 0.68 0 0 Z " fill="#D6E4EC" transform="translate(121,40)"/>
<path d="M0 0 C0.99 0 1.98 0 3 0 C3 1.98 3 3.96 3 6 C2.01 6.33 1.02 6.66 0 7 C0 4.69 0 2.38 0 0 Z " fill="#434B4A" transform="translate(133,144)"/>
<path d="M0 0 C0.99 0.33 1.98 0.66 3 1 C3 1.66 3 2.32 3 3 C4.32 2.67 5.64 2.34 7 2 C7 2.66 7 3.32 7 4 C4.36 4 1.72 4 -1 4 C-0.67 2.68 -0.34 1.36 0 0 Z " fill="#777A7B" transform="translate(180,285)"/>
<path d="M0 0 C0.66 0 1.32 0 2 0 C2 0.99 2 1.98 2 3 C1.01 3 0.02 3 -1 3 C-1 3.66 -1 4.32 -1 5 C-2.32 4.67 -3.64 4.34 -5 4 C-5 3.34 -5 2.68 -5 2 C-3.35 2 -1.7 2 0 2 C0 1.34 0 0.68 0 0 Z " fill="#3980AF" transform="translate(202,111)"/>
<path d="M0 0 C1.4540625 0.0309375 1.4540625 0.0309375 2.9375 0.0625 C2.298125 0.330625 1.65875 0.59875 1 0.875 C-1.39381686 1.94917752 -1.39381686 1.94917752 -2.0625 5.0625 C-3.0525 5.0625 -4.0425 5.0625 -5.0625 5.0625 C-3.9375 0.08035714 -3.9375 0.08035714 0 0 Z " fill="#71DCC7" transform="translate(80.0625,42.9375)"/>
<path d="M0 0 C1.32 0 2.64 0 4 0 C4.33 1.32 4.66 2.64 5 4 C3.35 4 1.7 4 0 4 C0 2.68 0 1.36 0 0 Z " fill="#BBBDBF" transform="translate(112,285)"/>
<path d="M0 0 C1.32 0.99 2.64 1.98 4 3 C2.68 3.33 1.36 3.66 0 4 C0 4.66 0 5.32 0 6 C0.66 6 1.32 6 2 6 C1.67 6.66 1.34 7.32 1 8 C0.34 7.67 -0.32 7.34 -1 7 C-0.67 4.69 -0.34 2.38 0 0 Z " fill="#62D8C1" transform="translate(82,183)"/>
<path d="M0 0 C0.66 0.66 1.32 1.32 2 2 C1.9765625 4.6015625 1.9765625 4.6015625 1.625 7.625 C1.51414062 8.62789062 1.40328125 9.63078125 1.2890625 10.6640625 C1.19367188 11.43492187 1.09828125 12.20578125 1 13 C0.67 13 0.34 13 0 13 C0 9.37 0 5.74 0 2 C-0.99 1.67 -1.98 1.34 -3 1 C-2.01 0.67 -1.02 0.34 0 0 Z " fill="#E3F9F5" transform="translate(98,117)"/>
<path d="M0 0 C0.66 0.33 1.32 0.66 2 1 C1.0479279 2.00596297 0.08812654 3.00461563 -0.875 4 C-1.40867188 4.556875 -1.94234375 5.11375 -2.4921875 5.6875 C-4 7 -4 7 -6 7 C-4.60667426 3.63279613 -3.0210714 2.0140476 0 0 Z " fill="#B4754A" transform="translate(130,100)"/>
<path d="M0 0 C1.65 0 3.3 0 5 0 C4.67 0.66 4.34 1.32 4 2 C3.01 2 2.02 2 1 2 C1.33 2.99 1.66 3.98 2 5 C1.01 5.33 0.02 5.66 -1 6 C-0.67 4.02 -0.34 2.04 0 0 Z " fill="#327BAC" transform="translate(152,57)"/>
<path d="M0 0 C1.32 0.99 2.64 1.98 4 3 C2.93453047 5.13093906 1.70840281 6.36587557 0 8 C0 5.36 0 2.72 0 0 Z " fill="#CDE0EA" transform="translate(138,43)"/>
</svg>
